<svg width="315" height="65" viewBox="0 0 315 65" fill="none" xmlns="http://www.w3.org/2000/svg">
<path d="M23.0259 48.6128C19.0528 48.6128 15.5914 47.6668 12.6417 45.7748C9.75213 43.8828 7.49469 41.1974 5.86934 37.7185C4.24398 34.2397 3.43131 30.12 3.43131 25.3594C3.43131 20.5989 4.24398 16.4792 5.86934 13.0004C7.55489 9.46048 9.84243 6.74454 12.7319 4.85253C15.6817 2.8995 19.113 1.92298 23.0259 1.92298C27.1194 1.92298 30.6711 2.8995 33.681 4.85253C36.7511 6.80557 39.1289 9.55203 40.8145 13.0919C42.5 16.5708 43.3428 20.6599 43.3428 25.3594C43.3428 29.9369 42.5 33.9955 40.8145 37.5354C39.1289 41.0143 36.7511 43.7302 33.681 45.6832C30.6109 47.6363 27.0592 48.6128 23.0259 48.6128ZM0 65V2.93001H7.85588L10.4745 12.7257H9.57154V36.6199H10.4745V65H0ZM21.3102 39.0917C24.6813 39.0917 27.4203 37.8406 29.5273 35.3382C31.6342 32.7749 32.6877 29.4486 32.6877 25.3594C32.6877 21.2092 31.6342 17.8524 29.5273 15.2891C27.4203 12.7257 24.6813 11.444 21.3102 11.444C17.9993 11.444 15.2603 12.7257 13.0931 15.2891C10.9862 17.7914 9.93273 21.1177 9.93273 25.2679C9.93273 29.4181 10.9862 32.7749 13.0931 35.3382C15.2603 37.8406 17.9993 39.0917 21.3102 39.0917Z" fill="#1F2328"/>
<path d="M58.9128 2.93001L61.5314 15.106V47.6058H51.0569V2.93001H58.9128ZM59.6352 20.1412L57.468 19.1341V11.1694L58.2807 10.0708C58.8827 9.03326 59.8458 7.87364 61.1702 6.59196C62.4946 5.31028 64.0296 4.21169 65.7754 3.29621C67.5813 2.38072 69.4174 1.92298 71.2835 1.92298C72.1865 1.92298 73.0293 1.98401 73.8119 2.10607C74.6546 2.22814 75.2867 2.44175 75.7081 2.74692V12.3595H72.8186C68.8455 12.3595 65.8657 13.0004 63.8791 14.282C61.8926 15.5027 60.4779 17.4557 59.6352 20.1412Z" fill="#1F2328"/>
<path d="M100.293 48.6128C95.7781 48.6128 91.805 47.6363 88.3737 45.6832C84.9424 43.7302 82.2636 41.0143 80.3373 37.5354C78.4711 33.9955 77.538 29.9369 77.538 25.3594C77.538 20.6599 78.4711 16.5708 80.3373 13.0919C82.2636 9.55203 84.9424 6.80557 88.3737 4.85253C91.805 2.8995 95.7781 1.92298 100.293 1.92298C104.808 1.92298 108.781 2.8995 112.212 4.85253C115.644 6.80557 118.292 9.55203 120.158 13.0919C122.085 16.5708 123.048 20.6599 123.048 25.3594C123.048 29.9369 122.085 33.9955 120.158 37.5354C118.292 41.0143 115.644 43.7302 112.212 45.6832C108.781 47.6363 104.808 48.6128 100.293 48.6128ZM100.293 38.3593C103.905 38.3593 106.825 37.1692 109.052 34.7889C111.279 32.3476 112.393 29.174 112.393 25.2679C112.393 21.3618 111.279 18.2186 109.052 15.8384C106.825 13.3971 103.905 12.1764 100.293 12.1764C96.6811 12.1764 93.7615 13.3666 91.5342 15.7468C89.3068 18.1271 88.1931 21.3008 88.1931 25.2679C88.1931 29.174 89.3068 32.3476 91.5342 34.7889C93.7615 37.1692 96.6811 38.3593 100.293 38.3593Z" fill="#1F2328"/>
<path d="M155.729 47.6058L144.983 30.5777H148.234L137.489 47.6058H125.208L141.913 22.9792L142.003 27.465L125.298 2.93001H137.579L148.324 19.8665H144.983L155.638 2.93001H167.919L151.214 27.465L151.304 22.9792L168.009 47.6058H155.729Z" fill="#1F2328"/>
<path d="M182.181 47.6053C180.555 47.6053 179.05 47.1781 177.666 46.3236C176.281 45.4692 175.168 44.3401 174.325 42.9363C173.482 41.5326 173.061 40.0068 173.061 38.3589C173.061 36.65 173.482 35.0937 174.325 33.6899C175.168 32.2862 176.281 31.1876 177.666 30.3942C179.05 29.5397 180.555 29.1125 182.181 29.1125C183.926 29.1125 185.492 29.5397 186.876 30.3942C188.261 31.1876 189.344 32.2862 190.127 33.6899C190.97 35.0937 191.391 36.65 191.391 38.3589C191.391 40.0068 190.97 41.5326 190.127 42.9363C189.344 44.3401 188.261 45.4692 186.876 46.3236C185.492 47.1781 183.926 47.6053 182.181 47.6053ZM182.181 18.4928C180.555 18.4928 179.05 18.0656 177.666 17.2111C176.281 16.3567 175.168 15.2276 174.325 13.8238C173.482 12.4201 173.061 10.8943 173.061 9.24642C173.061 7.53751 173.482 6.0117 174.325 4.66898C175.168 3.26524 176.281 2.13614 177.666 1.28168C179.05 0.427228 180.555 0 182.181 0C183.926 0 185.492 0.427228 186.876 1.28168C188.261 2.13614 189.344 3.26524 190.127 4.66898C190.97 6.0117 191.391 7.53751 191.391 9.24642C191.391 10.8943 190.97 12.4201 190.127 13.8238C189.344 15.2276 188.261 16.3567 186.876 17.2111C185.492 18.0656 183.926 18.4928 182.181 18.4928Z" fill="#1F2328"/>
<path d="M294.051 48.8874C290.68 48.8874 287.76 48.2771 285.292 47.0565C282.884 45.7748 281.018 44.0048 279.694 41.7466C278.369 39.4884 277.707 36.803 277.707 33.6904C277.707 30.6387 278.369 27.9838 279.694 25.7256C281.078 23.4674 283.005 21.6975 285.473 20.4158C287.941 19.0731 290.8 18.4017 294.051 18.4017C298.325 18.4017 301.756 19.3783 304.345 21.3313C306.994 23.2843 308.8 26.0308 309.763 29.5707L304.525 29.2045V18.1271C304.525 16.2961 303.893 14.6482 302.629 13.1835C301.425 11.7187 299.348 10.9863 296.399 10.9863C294.713 10.9863 292.847 11.1999 290.8 11.6271C288.754 11.9933 286.647 12.6952 284.479 13.7328L281.319 5.85957C283.847 4.57789 286.496 3.60137 289.265 2.93001C292.095 2.25865 294.894 1.92298 297.663 1.92298C301.576 1.92298 304.796 2.65537 307.325 4.12014C309.913 5.52389 311.84 7.44641 313.104 9.88771C314.368 12.329 315 15.1365 315 18.3102V47.6058H306.964L304.616 39.2748L309.763 37.7185C308.739 41.3804 306.843 44.1574 304.074 46.0494C301.365 47.9414 298.024 48.8874 294.051 48.8874ZM296.489 40.1903C298.897 40.1903 300.823 39.6105 302.268 38.4509C303.773 37.2913 304.525 35.7044 304.525 33.6904C304.525 31.5542 303.773 29.9369 302.268 28.8383C300.823 27.6787 298.897 27.0989 296.489 27.0989C294.081 27.0989 292.125 27.6787 290.62 28.8383C289.175 29.9369 288.453 31.5542 288.453 33.6904C288.453 35.7044 289.175 37.2913 290.62 38.4509C292.125 39.6105 294.081 40.1903 296.489 40.1903Z" fill="#1F2328"/>
<path fill-rule="evenodd" clip-rule="evenodd" d="M231.64 1.83098H218.181L196.148 47.6053H209.665L231.64 1.83098Z" fill="#1F2328"/>
<path fill-rule="evenodd" clip-rule="evenodd" d="M267.265 1.83098H253.806L231.774 47.6053H245.29L267.265 1.83098Z" fill="#1F2328"/>
</svg>
